<svg width="47" height="68" viewBox="0 0 47 68" fill="none" xmlns="http://www.w3.org/2000/svg">
<path d="M44.4324 20.9579C44.2103 20.6595 44.1734 20.2665 44.2589 19.9045C44.4837 18.9523 44.4215 17.9168 43.9875 16.8704C43.6414 16.0359 43.2539 15.2315 42.8249 14.4572C41.2474 11.5713 39.201 9.13498 36.6855 7.14829C34.17 5.14068 31.2815 3.61407 28.0199 2.56844C27.2324 2.3143 27.2822 1.15015 28.1077 1.09135C28.9627 1.03045 29.8313 1 30.7134 1C34.5079 1 38.0253 1.52281 41.2655 2.56844C42.1958 2.86669 43.0958 3.20407 43.9654 3.58058C45.6925 4.32837 46.1127 6.48961 46.1127 8.37167V20.2854C46.1127 21.267 45.0184 21.7454 44.4324 20.9579Z" fill="white"/>
<path d="M46.1127 48.2347C46.1127 47.1823 44.952 46.6489 44.2984 47.4738C44.0381 47.8022 43.9928 48.2455 44.0808 48.6552C44.2903 49.6307 44.1881 50.691 43.6811 51.7551C43.521 52.0911 43.3528 52.4256 43.1767 52.7586C41.7484 55.4772 39.8192 57.9135 37.389 60.0675C34.9801 62.2006 32.1022 63.8945 28.7554 65.1492C27.8253 65.4943 27.9045 66.91 28.8954 66.9572C29.4946 66.9857 30.1006 67 30.7134 67C34.9129 67 38.6754 66.3831 42.001 65.1492C42.6667 64.8997 43.3138 64.6327 43.9424 64.3484C45.6924 63.5569 46.1127 61.3608 46.1127 59.4401V48.2347Z" fill="white"/>
<path d="M22.9085 53.0183C23.4319 53.3103 23.4137 54.0916 22.8398 54.2643C21.2623 54.7453 19.5462 54.9857 17.6916 54.9857C14.3874 54.9857 11.4776 54.1911 8.96208 52.6017C6.44662 51.0124 4.48541 48.6597 3.07846 45.5437C1.69282 42.4278 1 38.5798 1 34C1 29.5456 1.69282 25.7605 3.07846 22.6445C4.46409 19.5076 6.41464 17.1236 8.93011 15.4924C11.4456 13.8403 14.398 13.0143 17.7875 13.0143C19.6635 13.0143 21.4008 13.2757 22.9997 13.7985C23.526 13.9683 23.5399 14.6873 23.0571 14.9573C22.7576 15.1248 22.4638 15.3032 22.1757 15.4924C19.6602 17.1236 17.7097 19.5076 16.324 22.6445C14.9384 25.7605 14.2456 29.5456 14.2456 34C14.2456 38.5798 14.9384 42.4278 16.324 45.5437C17.731 48.6597 19.6922 51.0124 22.2077 52.6017C22.438 52.7472 22.6716 52.8861 22.9085 53.0183Z" fill="white"/>
<path d="M44.4324 20.9579C44.2103 20.6595 44.1734 20.2665 44.2589 19.9045C44.4837 18.9523 44.4215 17.9168 43.9875 16.8704C43.6414 16.0359 43.2539 15.2315 42.8249 14.4572C41.2474 11.5713 39.201 9.13498 36.6855 7.14829C34.17 5.14068 31.2815 3.61407 28.0199 2.56844C27.2324 2.3143 27.2822 1.15015 28.1077 1.09135C28.9627 1.03045 29.8313 1 30.7134 1C34.5079 1 38.0253 1.52281 41.2655 2.56844C42.1958 2.86669 43.0958 3.20407 43.9654 3.58058C45.6925 4.32837 46.1127 6.48961 46.1127 8.37167V20.2854C46.1127 21.267 45.0184 21.7454 44.4324 20.9579Z" stroke="white"/>
<path d="M46.1127 48.2347C46.1127 47.1823 44.952 46.6489 44.2984 47.4738C44.0381 47.8022 43.9928 48.2455 44.0808 48.6552C44.2903 49.6307 44.1881 50.691 43.6811 51.7551C43.521 52.0911 43.3528 52.4256 43.1767 52.7586C41.7484 55.4772 39.8192 57.9135 37.389 60.0675C34.9801 62.2006 32.1022 63.8945 28.7554 65.1492C27.8253 65.4943 27.9045 66.91 28.8954 66.9572C29.4946 66.9857 30.1006 67 30.7134 67C34.9129 67 38.6754 66.3831 42.001 65.1492C42.6667 64.8997 43.3138 64.6327 43.9424 64.3484C45.6924 63.5569 46.1127 61.3608 46.1127 59.4401V48.2347Z" stroke="white"/>
<path d="M22.9085 53.0183C23.4319 53.3103 23.4137 54.0916 22.8398 54.2643C21.2623 54.7453 19.5462 54.9857 17.6916 54.9857C14.3874 54.9857 11.4776 54.1911 8.96208 52.6017C6.44662 51.0124 4.48541 48.6597 3.07846 45.5437C1.69282 42.4278 1 38.5798 1 34C1 29.5456 1.69282 25.7605 3.07846 22.6445C4.46409 19.5076 6.41464 17.1236 8.93011 15.4924C11.4456 13.8403 14.398 13.0143 17.7875 13.0143C19.6635 13.0143 21.4008 13.2757 22.9997 13.7985C23.526 13.9683 23.5399 14.6873 23.0571 14.9573C22.7576 15.1248 22.4638 15.3032 22.1757 15.4924C19.6602 17.1236 17.7097 19.5076 16.324 22.6445C14.9384 25.7605 14.2456 29.5456 14.2456 34C14.2456 38.5798 14.9384 42.4278 16.324 45.5437C17.731 48.6597 19.6922 51.0124 22.2077 52.6017C22.438 52.7472 22.6716 52.8861 22.9085 53.0183Z" stroke="white"/>
</svg>
